<svg width="20" height="15" viewBox="0 0 20 15" fill="none" xmlns="http://www.w3.org/2000/svg">
<path d="M9.33005 3.85156C9.39646 3.78516 9.49607 3.75195 9.59568 3.75195C9.66209 3.75195 9.76169 3.78516 9.8281 3.85156L15.9707 8.86523V14.3105C15.9707 14.6094 15.7051 14.8418 15.4394 14.8418H11.6875C11.4219 14.8418 11.1562 14.6094 11.1562 14.3105V11.123C11.1562 10.8574 10.9238 10.5918 10.625 10.5918H8.49998C8.23435 10.5918 7.96873 10.8574 7.96873 11.123V14.3105C7.96873 14.6094 7.7363 14.8418 7.47068 14.8418H3.75193C3.4531 14.8418 3.22068 14.6094 3.22068 14.3105V8.89844L9.33005 3.85156ZM18.9922 7.27148C19.0918 7.33789 19.1582 7.4707 19.1582 7.57031C19.1582 7.66992 19.125 7.76953 19.0586 7.83594L18.1953 8.86523C18.1289 8.96484 18.0293 8.99805 17.8965 8.99805C17.7969 8.99805 17.6972 8.96484 17.6308 8.89844L9.8281 2.49023C9.76169 2.42383 9.66209 2.39062 9.59568 2.39062C9.49607 2.39062 9.39646 2.42383 9.33005 2.49023L1.52732 8.89844C1.46091 8.96484 1.3613 8.99805 1.26169 8.99805C1.12888 8.99805 1.02927 8.96484 0.962867 8.86523L0.0995855 7.83594C0.0663824 7.76953 -2.38419e-05 7.66992 -2.38419e-05 7.57031C-2.38419e-05 7.4707 0.0663824 7.33789 0.165992 7.27148L8.56638 0.332031C8.83201 0.132812 9.19724 0 9.59568 0C9.96091 0 10.3261 0.132812 10.5918 0.332031L13.5801 2.78906V0.398438C13.5801 0.166016 13.7461 0 13.9785 0H15.8379C16.0371 0 16.2363 0.166016 16.2363 0.398438V4.98047L18.9922 7.27148Z" fill="white"/>
</svg>
