<?xml version="1.0" encoding="UTF-8"?>
<svg id="Layer_1" xmlns="http://www.w3.org/2000/svg" version="1.1" viewBox="0 0 841.9 283.5">
  <!-- Generator: Adobe Illustrator 29.2.1, SVG Export Plug-In . SVG Version: 2.1.0 Build 116)  -->
  <defs>
    <style>
      .st0 {
        fill: #fff;
      }
    </style>
  </defs>
  <g>
    <path class="st0" d="M425.9,165.2h-8.6v-4.4c-3.1,3.1-7.4,5.4-12.2,5.4-7.2,0-15.5-4.1-15.5-15s7.7-14.5,17.8-14.5,7.5.6,9.9,1.7v-3.3c0-4.8-3-7.6-8.4-7.6s-8.2.9-11.6,2.8l-3.4-6.6c4.2-2.6,9-4,15.3-4,9.9,0,16.7,4.8,16.7,15v30.6ZM417.3,152.6v-6.4c-2.4-1.2-5.4-2-10.2-2s-9.2,2.6-9.2,6.6,2.8,7.4,8.6,7.4,8.8-2.9,10.8-5.7Z"/>
    <path class="st0" d="M456,156.4l-1,7.7c-2.1,1.2-5.1,2-8.6,2-6.2,0-10-3.8-10-11.8v-33.7h0l8.6-14.8v14.8h11.1v8h-11.1v24.2c0,4.2,1.4,5.4,4.6,5.4s4.8-.9,6.5-1.8Z"/>
    <rect class="st0" x="464.6" y="120.6" width="8.8" height="44.6"/>
    <path class="st0" d="M521.1,120.6l-15.7,44.6h-8.8l-16-44.6h9.2l8,24.2c1.4,4.3,2.7,8.5,3.3,11,.5-2.5,1.7-6.6,3.1-11l7.7-24.2h9.3Z"/>
    <path class="st0" d="M564.1,165.2h-8.8v-4.3c-2.2,3.2-6.6,5.2-11.2,5.2-10.4,0-15.9-6.8-15.9-20v-25.6h8.8v25.2c0,9,3.4,12.2,9.2,12.2s9.2-4.2,9.2-11.4v-26.1h8.8v44.6Z"/>
    <path class="st0" d="M606,153c0,9.9-8,13.2-16.7,13.2s-12.6-2.4-17.1-5.7l4-6.6c4.2,2.9,8.8,4.4,13,4.4s8.2-1.8,8.2-4.9-3.9-5-10.4-7.5c-9.6-3.7-13.1-7-13.1-14s6.3-12.2,15.2-12.2,11.1,2,15.1,4.9l-3.8,6.7c-3.7-2.6-7.3-3.8-11.6-3.8s-6.1,1.7-6.1,4.1,1.5,3.8,8.2,6.5c9.9,3.8,15,6.5,15,15Z"/>
    <path class="st0" d="M381.3,165.2h-8.8v-25.2c0-9-2.8-12.2-8.6-12.2s-8.6,4.2-8.6,11.4v26.1h-8.8v-25.2c0-9-2.8-12.2-8.6-12.2s-8.6,4.2-8.6,11.4v26.1h-8.8v-44.6h8.8v4.2c2.2-3.2,6-5.2,10.6-5.2s9.9,2.3,12.2,6.5c3.2-4,6.7-6.5,13.7-6.5,10.4,0,15.3,6.8,15.3,20v25.6Z"/>
  </g>
  <path class="st0" d="M218.8,90.3l-6.3,6.3,11.7,26.6-26.6-11.8-6.3,6.3,45.9,18.6-18.5-46ZM189.4,122.6v8.9l27.1,10.5-27.1,10.5v8.9l45.6-19.3-45.6-19.4ZM262.4,88.3h-8.9l-10.5,27.1-10.5-27.1h-8.9l19.3,45.6,19.4-45.6ZM294.6,117.8l-6.3-6.3-26.6,11.8,11.8-26.6-6.3-6.3-18.6,45.9,46-18.5ZM223.6,195.6h8.9l10.5-27.1,10.5,27.1h8.9l-19.3-45.6-19.4,45.6ZM267.2,193.6l6.3-6.3-11.8-26.6,26.6,11.8,6.3-6.3-45.9-18.6,18.5,46ZM296.6,122.6l-45.6,19.3,45.6,19.4v-8.9l-27.1-10.5,27.1-10.5v-8.9ZM191.3,166.2l6.3,6.3,26.6-11.8-11.8,26.6,6.3,6.3,18.6-45.9-46,18.5Z"/>
</svg>